<svg width="1000" height="1800" xmlns="http://www.w3.org/2000/svg" style="vector-effect: non-scaling-stroke;" stroke="null">
 <!-- Created with Method Draw - http://github.com/duopixel/Method-Draw/ -->
 <defs style="vector-effect: non-scaling-stroke;" stroke="null">
  <linearGradient spreadMethod="pad" y2="1" x2="1" y1="0" x1="0" id="svg_78">
   <stop offset="0" stop-color="#ffaaff"/>
   <stop offset="1" stop-color="#005500"/>
  </linearGradient>
  <linearGradient y2="0" x2="1" y1="0" x1="0" id="svg_80">
   <stop offset="0" stop-color="#000"/>
   <stop offset="1" stop-color="#ffffff"/>
   <stop offset="1" stop-color="#ffffff"/>
  </linearGradient>
 </defs>
 <g stroke="null">
  <title stroke="null">background</title>
  <rect stroke="null" fill="#fff" id="canvas_background" height="1802" width="1002" y="-1" x="-1"/>
  <g style="vector-effect: non-scaling-stroke;" stroke="null" display="none" overflow="visible" y="0" x="0" height="100%" width="100%" id="canvasGrid">
   <rect fill="url(#gridpattern)" stroke-width="0" y="0" x="0" height="100%" width="100%"/>
  </g>
 </g>
 <g stroke="null">
  <title stroke="null">Layer 1</title>
  <rect stroke="#000" rx="10" id="svg_1" height="37" width="123" y="42" x="23.5" stroke-width="0" fill="#33bfbf"/>
  <rect stroke="#000" style="vector-effect: non-scaling-stroke;" rx="10" id="svg_2" height="37" width="123" y="42" x="162.5" stroke-width="0" fill="#33bfbf"/>
  <rect stroke="#000" rx="10" id="svg_3" height="37" width="123" y="43" x="301.5" stroke-width="0" fill="#33bfbf"/>
  <rect stroke="#000" rx="10" id="svg_4" height="37" width="123" y="43" x="440.5" stroke-width="0" fill="#33bfbf"/>
  <ellipse stroke="#000" ry="117.999997" rx="117.999997" id="svg_5" cy="287.714475" cx="223.214619" stroke-opacity="null" stroke-width="0" fill="#33bfbf"/>
  <rect stroke="#000" rx="10" id="svg_6" height="269.00001" width="468" y="154" x="487.5" stroke-opacity="null" stroke-width="0" fill="#33bfbf"/>
  <text stroke="#000" style="vector-effect: non-scaling-stroke;" font-weight="bold" xml:space="preserve" text-anchor="start" font-family="Helvetica, Arial, sans-serif" font-size="24" id="svg_7" y="199.5" x="645.5" fill-opacity="null" stroke-opacity="null" stroke-width="0" fill="#000000">Alex Johnson</text>
  <text stroke="#000" xml:space="preserve" text-anchor="start" font-family="Helvetica, Arial, sans-serif" font-size="20" id="svg_8" y="235.5" x="650.02098" fill-opacity="null" stroke-opacity="null" stroke-width="0" fill="#000000">Product designer</text>
  <text stroke="#000" xml:space="preserve" text-anchor="start" font-family="Helvetica, Arial, sans-serif" font-size="16" id="svg_9" y="283.5" x="499.5" fill-opacity="null" stroke-opacity="null" stroke-width="0" fill="#000000">Lorem ipsum dolor sit amet, consectetur adipiscing elit.</text>
  <text stroke="#000" xml:space="preserve" text-anchor="start" font-family="Helvetica, Arial, sans-serif" font-size="16" id="svg_10" y="310.5" x="500.5" fill-opacity="null" stroke-opacity="null" stroke-width="0" fill="#000000">Aenean venenatis justo quam, nec varius orci tempor at.</text>
  <text stroke="#000" xml:space="preserve" text-anchor="start" font-family="Helvetica, Arial, sans-serif" font-size="16" id="svg_11" y="336.5" x="500.539291" fill-opacity="null" stroke-opacity="null" stroke-width="0" fill="#000000">Integer laoreet ornare urna et egestas.</text>
  <g stroke="null" transform="translate(-5.228556156158447,-28.75705909729004) " id="svg_18">
   <path stroke="null" id="svg_17" d="m689.477217,423.498808l0.757752,-4.937642l-4.737813,0l0,-3.204192c0,-1.350844 0.661834,-2.667584 2.783751,-2.667584l2.15389,0l0,-4.20387s-1.954594,-0.333581 -3.823395,-0.333581c-3.901728,0 -6.452079,2.36491 -6.452079,6.646047l0,3.76318l-4.337089,0l0,4.937642l4.337089,0l0,11.936453l5.337833,0l0,-11.936453l3.980061,0z" fill="currentColor"/>
  </g>
  <g stroke="null" id="svg_23">
   <path stroke="null" id="svg_22" d="m737.323733,386.084105c0.021559,0.301687 0.021559,0.60344 0.021559,0.905127c0,9.201851 -7.003742,19.804543 -19.804543,19.804543c-3.943688,0 -7.607182,-1.142205 -10.68886,-3.124729c0.560323,0.064609 1.099022,0.086168 1.680903,0.086168c3.254014,0 6.249524,-1.099022 8.641594,-2.973885c-3.06012,-0.064676 -5.624592,-2.068824 -6.50816,-4.827257c0.431038,0.064609 0.86201,0.107726 1.314607,0.107726c0.624933,0 1.249931,-0.086234 1.831747,-0.237011c-3.189405,-0.646557 -5.581541,-3.448041 -5.581541,-6.831406l0,-0.086168c0.926619,0.517206 2.004215,0.840452 3.146287,0.883502c-1.874864,-1.249931 -3.10317,-3.383365 -3.10317,-5.796994c0,-1.292982 0.344738,-2.478238 0.948178,-3.51265c3.426482,4.223817 8.576985,6.982183 14.352354,7.283936c-0.107726,-0.517206 -0.172402,-1.055904 -0.172402,-1.594669c0,-3.835962 3.103237,-6.960691 6.960691,-6.960691c2.004149,0 3.814337,0.840452 5.085827,2.198109c1.573111,-0.301687 3.081612,-0.883569 4.417777,-1.680903c-0.517272,1.616294 -1.616294,2.973952 -3.06012,3.835896c1.400775,-0.150777 2.758433,-0.538765 4.008298,-1.077463c-0.948045,1.37915 -2.133367,2.607456 -3.491025,3.598818z" fill="currentColor"/>
  </g>
  <g stroke="null" id="svg_28">
   <path stroke="null" id="svg_27" d="m767.013734,401.321792c0,0.121133 -0.139302,0.218039 -0.314945,0.218039c-0.199869,0.01817 -0.339171,-0.078736 -0.339171,-0.218039c0,-0.121133 0.139302,-0.218039 0.314945,-0.218039c0.181699,-0.01817 0.339171,0.078736 0.339171,0.218039zm-1.883611,-0.272548c-0.042396,0.121133 0.078736,0.260435 0.260435,0.296775c0.157472,0.060566 0.339171,0 0.375511,-0.121133s-0.078736,-0.260435 -0.260435,-0.314945c-0.157472,-0.042396 -0.333115,0.01817 -0.375511,0.139302zm2.677029,-0.102963c-0.175642,0.042396 -0.296775,0.157472 -0.278605,0.296775c0.01817,0.121133 0.175642,0.199869 0.357341,0.157472c0.175642,-0.042396 0.296775,-0.157472 0.278605,-0.278605c-0.01817,-0.115076 -0.181699,-0.193812 -0.357341,-0.175642zm3.985261,-23.208996c-8.400542,0 -14.826624,6.377629 -14.826624,14.778171c0,6.7168 4.227526,12.464539 10.265983,14.487453c0.775248,0.139302 1.047797,-0.339171 1.047797,-0.732852c0,-0.375511 -0.01817,-2.446877 -0.01817,-3.718769c0,0 -4.239639,0.908494 -5.129963,-1.804875c0,0 -0.690456,-1.762479 -1.683742,-2.216726c0,0 -1.386968,-0.950891 0.096906,-0.932721c0,0 1.5081,0.121133 2.337858,1.56261c1.326401,2.337858 3.549184,1.665573 4.415281,1.265835c0.139302,-0.96906 0.532983,-1.641346 0.96906,-2.041083c-3.385655,-0.375511 -6.801593,-0.866098 -6.801593,-6.692573c0,-1.665573 0.460304,-2.501387 1.429364,-3.567354c-0.157472,-0.393681 -0.672286,-2.016857 0.157472,-4.11245c1.265835,-0.393681 4.179073,1.635289 4.179073,1.635289c1.211325,-0.339171 2.5135,-0.514813 3.803562,-0.514813s2.592237,0.175642 3.803562,0.514813c0,0 2.913238,-2.035027 4.179073,-1.635289c0.829758,2.10165 0.314945,3.718769 0.157472,4.11245c0.96906,1.072023 1.56261,1.907838 1.56261,3.567354c0,5.844645 -3.567354,6.311006 -6.953008,6.692573c0.55721,0.478474 1.029627,1.386968 1.029627,2.810275c0,2.041083 -0.01817,4.566697 -0.01817,5.063341c0,0.393681 0.278605,0.872154 1.047797,0.732852c6.056627,-2.0108 10.163021,-7.75854 10.163021,-14.475339c0,-8.400542 -6.813706,-14.778171 -15.214248,-14.778171zm-12.924843,44.098304c-0.078736,0.060566 -0.060566,0.199869 0.042396,0.314945c0.096906,0.096906 0.236208,0.139302 0.314945,0.060566c0.078736,-0.060566 0.060566,-0.199869 -0.042396,-0.314945c-0.096906,-0.096906 -0.236208,-0.139302 -0.314945,-0.060566zm8.285466,-21.379895c-0.042396,0.078736 0.01817,0.175642 0.139302,0.236208c0.096906,0.060566 0.218039,0.042396 0.260435,-0.042396c0.042396,-0.078736 -0.01817,-0.175642 -0.139302,-0.236208c-0.121133,-0.03634 -0.218039,-0.01817 -0.260435,0.042396zm1.962347,2.156159c-0.096906,0.078736 -0.060566,0.260435 0.078736,0.375511c0.139302,0.139302 0.314945,0.157472 0.393681,0.060566c0.078736,-0.078736 0.042396,-0.260435 -0.078736,-0.375511c-0.133246,-0.139302 -0.314945,-0.157472 -0.393681,-0.060566zm-0.690456,-0.890324c-0.096906,0.060566 -0.096906,0.218039 0,0.357341c0.096906,0.139302 0.260435,0.199869 0.339171,0.139302c0.096906,-0.078736 0.096906,-0.236208 0,-0.375511c-0.084793,-0.139302 -0.242265,-0.199869 -0.339171,-0.121133z" fill="currentColor"/>
  </g>
  <text xml:space="preserve" text-anchor="start" font-family="Helvetica, Arial, sans-serif" font-size="14" id="svg_29" y="65.08894" x="45.330119" fill-opacity="null" stroke-opacity="null" stroke-width="0" stroke="#000" fill="#000000">Presentation</text>
  <text xml:space="preserve" text-anchor="start" font-family="Helvetica, Arial, sans-serif" font-size="14" id="svg_30" y="64.859975" x="193.462256" fill-opacity="null" stroke-opacity="null" stroke-width="0" stroke="#000" fill="#000000">Education</text>
  <text xml:space="preserve" text-anchor="start" font-family="Helvetica, Arial, sans-serif" font-size="14" id="svg_31" y="66.311191" x="310.500889" fill-opacity="null" stroke-opacity="null" stroke-width="0" stroke="#000" fill="#000000">Work Experience</text>
  <text xml:space="preserve" text-anchor="start" font-family="Helvetica, Arial, sans-serif" font-size="14" id="svg_32" y="65.394384" x="487.586061" fill-opacity="null" stroke-opacity="null" stroke-width="0" stroke="#000" fill="#000000">Skills</text>
  <text xml:space="preserve" text-anchor="start" font-family="Helvetica, Arial, sans-serif" font-size="14" id="svg_39" y="673.164249" x="178.16644" fill-opacity="null" stroke-opacity="null" stroke-width="0" stroke="#000" fill="#000000">Art &amp; Multimedia from</text>
  <text style="cursor: move;" xml:space="preserve" text-anchor="start" font-family="Helvetica, Arial, sans-serif" font-size="14" id="svg_55" y="910.28844" x="178.16644" fill-opacity="null" stroke-opacity="null" stroke-width="0" stroke="#000" fill="#000000">Certificate in Webdesign from</text>
  <rect stroke="url(#svg_80)" id="svg_74" height="537.444251" width="1007.883105" y="541.96581" x="-2.327831" stroke-width="0" fill="url(#svg_78)"/>
  <rect stroke="#000" rx="10" id="svg_54" height="187.36692" width="320.004185" y="881.375904" x="526.112871" stroke-opacity="null" stroke-width="0" fill="#33bfbf"/>
  <text xml:space="preserve" text-anchor="start" font-family="Helvetica, Arial, sans-serif" font-size="14" id="svg_69" y="910.580414" x="368.42524" fill-opacity="null" stroke-opacity="null" stroke-width="0" stroke="#000" fill="#000000">School</text>
  <rect stroke="#000" rx="10" id="svg_53" height="187.36692" width="320.004185" y="870.98062" x="156.543097" stroke-opacity="null" stroke-width="0" fill="#33bfbf"/>
  <line stroke-width="3" stroke-linecap="null" stroke-linejoin="null" id="svg_70" y2="1534.423025" x2="1036.254893" y1="1534.423025" x1="-25.239346" fill-opacity="null" stroke-opacity="null" stroke="#000" fill="none"/>
  <line stroke-width="3" stroke-linecap="null" stroke-linejoin="null" id="svg_71" y2="1707.513718" x2="1005.271295" y1="1707.513718" x1="-56.222944" fill-opacity="null" stroke-opacity="null" stroke="#000" fill="none"/>
  <line stroke-width="3" stroke-linecap="null" stroke-linejoin="null" id="svg_72" y2="1754.983139" x2="1019.067989" y1="1754.983139" x1="-42.42625" fill-opacity="null" stroke-opacity="null" stroke="#000" fill="none"/>
  <text xml:space="preserve" text-anchor="start" font-family="Helvetica, Arial, sans-serif" font-size="12" id="svg_59" y="938.247394" x="178.474276" fill-opacity="null" stroke-opacity="null" stroke-width="0" stroke="#000" fill="#000000">Manchester, United Kingdom</text>
  <text xml:space="preserve" text-anchor="start" font-family="Helvetica, Arial, sans-serif" font-size="12" id="svg_61" y="967.059135" x="178.843677" fill-opacity="null" stroke-opacity="null" stroke-width="0" stroke="#000" fill="#000000">2005 - 2008</text>
  <text stroke="#000" xml:space="preserve" text-anchor="start" font-family="Helvetica, Arial, sans-serif" font-size="12" id="svg_63" y="993.66689" x="178.105422" fill-opacity="null" stroke-opacity="null" stroke-width="0" fill="#000000">Ut aliquet neque vitae turpis pulvinar congue.</text>
  <text stroke="#000" xml:space="preserve" text-anchor="start" font-family="Helvetica, Arial, sans-serif" font-size="12" id="svg_64" y="1014.704171" x="178.901831" fill-opacity="null" stroke-opacity="null" stroke-width="0" fill="#000000">Fusce elementum massa eget purus euismod.</text>
  <text stroke="#000" xml:space="preserve" text-anchor="start" font-family="Helvetica, Arial, sans-serif" font-size="12" id="svg_65" y="1037.630775" x="176.879174" fill-opacity="null" stroke-opacity="null" stroke-width="0" fill="#000000">Fusce et justo id velit congue aliquam nec eget lectus.</text>
  <text xml:space="preserve" text-anchor="start" font-family="Helvetica, Arial, sans-serif" font-size="14" id="svg_75" y="906.709467" x="181.3857" fill-opacity="null" stroke-opacity="null" stroke-width="0" stroke="#000" fill="#000000">Dramatic Arts from</text>
  <text xml:space="preserve" text-anchor="start" font-family="Helvetica, Arial, sans-serif" font-size="14" id="svg_76" y="904.645058" x="301.984409" fill-opacity="null" stroke-opacity="null" stroke-width="0" stroke="#000" fill="#000000">University of Cambridge</text>
  <rect stroke="#000" rx="10" id="svg_35" height="187.36692" width="320.004185" y="637.220819" x="162.209779" stroke-opacity="null" stroke-width="0" fill="#33bfbf"/>
  <text xml:space="preserve" text-anchor="start" font-family="Helvetica, Arial, sans-serif" font-size="12" id="svg_40" y="700.09223" x="178.474276" fill-opacity="null" stroke-opacity="null" stroke-width="0" stroke="#000" fill="#000000">Oxford, United Kingdom</text>
  <text xml:space="preserve" text-anchor="start" font-family="Helvetica, Arial, sans-serif" font-size="12" id="svg_41" y="723.749093" x="178.843677" fill-opacity="null" stroke-opacity="null" stroke-width="0" stroke="#000" fill="#000000">2005 - 2008</text>
  <text stroke="#000" xml:space="preserve" text-anchor="start" font-family="Helvetica, Arial, sans-serif" font-size="12" id="svg_43" y="757.573674" x="176.043473" fill-opacity="null" stroke-opacity="null" stroke-width="0" fill="#000000">Lorem ipsum dolor sit amet, consectetur adipiscing elit.</text>
  <text stroke="#000" xml:space="preserve" text-anchor="start" font-family="Helvetica, Arial, sans-serif" font-size="12" id="svg_44" y="776.549005" x="175.808907" fill-opacity="null" stroke-opacity="null" stroke-width="0" fill="#000000">Aenean venenatis justo quam, nec varius orci tempor at.</text>
  <text stroke="#000" xml:space="preserve" text-anchor="start" font-family="Helvetica, Arial, sans-serif" font-size="12" id="svg_45" y="793.28976" x="175.848199" fill-opacity="null" stroke-opacity="null" stroke-width="0" fill="#000000">Integer laoreet ornare urna et egestas.</text>
  <text xml:space="preserve" text-anchor="start" font-family="Helvetica, Arial, sans-serif" font-size="14" id="svg_42" y="673.456224" x="314.814554" fill-opacity="null" stroke-opacity="null" stroke-width="0" stroke="#000" fill="#000000">Oxford University</text>
  <text xml:space="preserve" text-anchor="start" font-family="Helvetica, Arial, sans-serif" font-size="14" id="svg_77" y="673.384952" x="174.229989" fill-opacity="null" stroke-opacity="null" stroke-width="0" stroke="#000" fill="#000000">Art &amp; Multimedia from</text>
  <text xml:space="preserve" text-anchor="start" font-family="Helvetica, Arial, sans-serif" font-size="14" id="svg_46" y="671.929682" x="540.511829" fill-opacity="null" stroke-opacity="null" stroke-width="0" stroke="#000" fill="#000000">Dramatic Arts from</text>
  <rect stroke="#000" rx="10" id="svg_36" height="187.36692" width="320.004185" y="641.843214" x="525.357585" stroke-opacity="null" stroke-width="0" fill="#33bfbf"/>
  <text xml:space="preserve" text-anchor="start" font-family="Helvetica, Arial, sans-serif" font-size="14" id="svg_47" y="671.604374" x="661.110551" fill-opacity="null" stroke-opacity="null" stroke-width="0" stroke="#000" fill="#000000">University of Cambridge</text>
  <text xml:space="preserve" text-anchor="start" font-family="Helvetica, Arial, sans-serif" font-size="12" id="svg_48" y="698.86417" x="541.436953" fill-opacity="null" stroke-opacity="null" stroke-width="0" stroke="#000" fill="#000000">Cambridge, United Kingdom</text>
  <text xml:space="preserve" text-anchor="start" font-family="Helvetica, Arial, sans-serif" font-size="12" id="svg_49" y="724.58949" x="541.806332" fill-opacity="null" stroke-opacity="null" stroke-width="0" stroke="#000" fill="#000000">2002 - 2005</text>
  <text stroke="#000" xml:space="preserve" text-anchor="start" font-family="Helvetica, Arial, sans-serif" font-size="12" id="svg_50" y="755.747852" x="542.709838" fill-opacity="null" stroke-opacity="null" stroke-width="0" fill="#000000">Aliquam tincidunt nisi sit amet luctus pulvinar.</text>
  <text stroke="#000" xml:space="preserve" text-anchor="start" font-family="Helvetica, Arial, sans-serif" font-size="12" id="svg_51" y="778.229797" x="543.709826" fill-opacity="null" stroke-opacity="null" stroke-width="0" fill="#000000">Integer vitae neque ipsum.</text>
  <text stroke="#000" xml:space="preserve" text-anchor="start" font-family="Helvetica, Arial, sans-serif" font-size="12" id="svg_52" y="799.087945" x="543.131843" fill-opacity="null" stroke-opacity="null" stroke-width="0" fill="#000000">In ac dignissim velit, vel malesuada ipsum.</text>
  <text xml:space="preserve" text-anchor="start" font-family="Helvetica, Arial, sans-serif" font-size="14" id="svg_79" y="673.712946" x="539.38036" fill-opacity="null" stroke-opacity="null" stroke-width="0" stroke="#000" fill="#000000">Dramatic Arts from</text>
  <text xml:space="preserve" text-anchor="start" font-family="Helvetica, Arial, sans-serif" font-size="14" id="svg_56" y="913.381366" x="546.224434" fill-opacity="null" stroke-opacity="null" stroke-width="0" stroke="#000" fill="#000000">Art &amp; Multimedia from</text>
  <text xml:space="preserve" text-anchor="start" font-family="Helvetica, Arial, sans-serif" font-size="14" id="svg_58" y="913.67334" x="688.027426" fill-opacity="null" stroke-opacity="null" stroke-width="0" stroke="#000" fill="#000000">Oxford University</text>
  <text xml:space="preserve" text-anchor="start" font-family="Helvetica, Arial, sans-serif" font-size="12" id="svg_60" y="942.371296" x="547.563243" fill-opacity="null" stroke-opacity="null" stroke-width="0" stroke="#000" fill="#000000">Oxford, United Kingdom</text>
  <text xml:space="preserve" text-anchor="start" font-family="Helvetica, Arial, sans-serif" font-size="12" id="svg_62" y="968.090108" x="549.99459" fill-opacity="null" stroke-opacity="null" stroke-width="0" stroke="#000" fill="#000000">2005 - 2008</text>
  <text stroke="#000" xml:space="preserve" text-anchor="start" font-family="Helvetica, Arial, sans-serif" font-size="12" id="svg_66" y="994.933993" x="548.895686" fill-opacity="null" stroke-opacity="null" stroke-width="0" fill="#000000">Aliquam pretium consequat est vitae scelerisque.</text>
  <text stroke="#000" xml:space="preserve" text-anchor="start" font-family="Helvetica, Arial, sans-serif" font-size="12" id="svg_67" y="1015.353987" x="548.864699" fill-opacity="null" stroke-opacity="null" stroke-width="0" fill="#000000">Maecenas convallis lacus mattis, ornare quam id</text>
  <text stroke="#000" xml:space="preserve" text-anchor="start" font-family="Helvetica, Arial, sans-serif" font-size="12" id="svg_68" y="1040.336037" x="550.348666" fill-opacity="null" stroke-opacity="null" stroke-width="0" fill="#000000">Maecenas vitae rhoncus purus.</text>
 </g>
</svg>